/* XPM */
static char *f14185a14a7f48a8d05ead0ea630649d3hIFhjH0MilUtkQj[] = {
/* columns rows colors chars-per-pixel */
"32 32 225 2 ",
"   c #0C0000",
".  c #140100",
"X  c #1C0200",
"o  c #1C0902",
"O  c #15030A",
"+  c #160B08",
"@  c #1A0C14",
"#  c #1E1415",
"$  c #230400",
"%  c #2A0200",
"&  c #240B02",
"*  c #2B0C02",
"=  c #290F0B",
"-  c #330700",
";  c #320B02",
":  c #3B0D06",
">  c #251302",
",  c #2C1202",
"<  c #25120A",
"1  c #2C150B",
"2  c #2F1D0B",
"3  c #331303",
"4  c #3B1302",
"5  c #351A05",
"6  c #3C1B05",
"7  c #34140B",
"8  c #3B140A",
"9  c #32190B",
"0  c #3B1B0C",
"q  c #210E10",
"w  c #2B1714",
"e  c #24181A",
"r  c #371D13",
"t  c #3F230B",
"y  c #25201D",
"u  c #36221C",
"i  c #3B2218",
"p  c #311E22",
"a  c #2C2524",
"s  c #392724",
"d  c #3D312C",
"f  c #392933",
"g  c #400F00",
"h  c #401502",
"j  c #451C02",
"k  c #431C0B",
"l  c #44180B",
"z  c #491C14",
"x  c #521F1B",
"c  c #47220E",
"v  c #49250C",
"b  c #50280E",
"n  c #4C2613",
"m  c #482D18",
"M  c #462A1A",
"N  c #532E1C",
"B  c #592A1F",
"V  c #4B3016",
"C  c #4B301F",
"Z  c #513218",
"A  c #58351B",
"S  c #60391C",
"D  c #462C24",
"F  c #562E22",
"G  c #5C2B26",
"H  c #4B3328",
"J  c #5D372C",
"K  c #583928",
"L  c #4B3B35",
"P  c #563934",
"I  c #67392E",
"U  c #5D4327",
"Y  c #5A4239",
"T  c #5F5436",
"R  c #6E4E28",
"E  c #69562C",
"W  c #694D3A",
"Q  c #684A37",
"!  c #76473C",
"~  c #6E543D",
"^  c #695536",
"/  c #74573C",
"(  c #755D38",
")  c #6F613B",
"_  c #6D6034",
"`  c #73613D",
"'  c #7A663D",
"]  c #4D4047",
"[  c #574843",
"{  c #5A4B52",
"}  c #6A5547",
"|  c #7B5446",
" . c #755A45",
".. c #795C44",
"X. c #745B4A",
"o. c #795C4C",
"O. c #725548",
"+. c #775D58",
"@. c #664E4A",
"#. c #7C6543",
"$. c #7E6945",
"%. c #76604A",
"&. c #7D624C",
"*. c #786D4F",
"=. c #7E6456",
"-. c #796761",
";. c #7A706F",
":. c #7E7375",
">. c #845A3C",
",. c #885B39",
"<. c #8D633E",
"1. c #896637",
"2. c #956534",
"3. c #9C6C3C",
"4. c #95643B",
"5. c #825D42",
"6. c #885B49",
"7. c #826444",
"8. c #8E6344",
"9. c #836C45",
"0. c #8B6C45",
"q. c #83654C",
"w. c #8A644A",
"e. c #836B4C",
"r. c #8C6B4D",
"t. c #946643",
"y. c #9B6B42",
"u. c #936C4B",
"i. c #9C6E4B",
"p. c #956942",
"a. c #85744B",
"s. c #8A744D",
"d. c #8F784E",
"f. c #9C7245",
"g. c #95724C",
"h. c #9C704C",
"j. c #957545",
"k. c #826653",
"l. c #8D6655",
"z. c #856B53",
"x. c #8B6C53",
"c. c #866A5B",
"v. c #8A6D5B",
"b. c #85645A",
"n. c #94675A",
"m. c #926C5B",
"M. c #946B54",
"N. c #8B7354",
"B. c #8C725B",
"V. c #897854",
"C. c #947355",
"Z. c #9C7352",
"A. c #937A54",
"S. c #94755B",
"D. c #937A5C",
"F. c #9A7C5D",
"G. c #A56E47",
"H. c #A37444",
"J. c #A7724A",
"K. c #A57756",
"L. c #8A6B62",
"P. c #9C6B62",
"I. c #956963",
"U. c #8D7163",
"Y. c #8D736A",
"T. c #86756A",
"R. c #927563",
"E. c #9C7162",
"W. c #947A64",
"Q. c #9A7C65",
"!. c #92776A",
"~. c #9B7D6B",
"^. c #99786E",
"/. c #867170",
"(. c #937973",
"). c #9B7E74",
"_. c #A27D66",
"`. c #8F835D",
"'. c #97815A",
"]. c #9A835E",
"[. c #A1815B",
"{. c #9A8066",
"}. c #9C826D",
"|. c #978865",
" X c #9D8373",
".X c #A28A65",
"XX c #A38367",
"oX c #A58A75",
"OX c #A48A7C",
"+X c #A78B7B",
"@X c #AF9876",
"#X c #B9A87D",
"$X c #A58B85",
"%X c #ABA19F",
"&X c #C2A792",
"*X c #CAB9B1",
"=X c #E5D4A9",
"-X c #E7CCB7",
";X c #EFD8B8",
":X c #F7E5BA",
">X c #D5CACC",
",X c #E3D0CC",
"<X c #F6DAC8",
"1X c #E7D8D5",
"2X c #E9CEC5",
"3X c #FDE3CD",
"4X c #F9E9C5",
"5X c #FFF3CA",
"6X c #EFE2D1",
"7X c #FFEAD6",
"8X c #FFECDA",
"9X c #F8E1D7",
"0X c #FFF3DD",
"qX c #FFFDDA",
"wX c #FFFDD4",
"eX c #F4EBEA",
"rX c #F7E7E5",
"tX c #FFF5E3",
"yX c #FFF9E4",
"uX c #FFF4ED",
"iX c #FFFBEB",
"pX c #FFF7F2",
"aX c #FFFBF5",
"sX c #FFFBFC",
"dX c #FFF3F8",
/* pixels */
"% % % X 7 $ : % X * $ X $ X , X & 6 X . U . M X . & . X X * , X ",
"I.I.I.I.^.b.R.L.3 o.v.v.v.&.R.R.V.( ].#.N.oX. +XU.R.N.B.N.V.s.9.",
"m.m.m.Q.E.x.l.R.$ z.z.'.~.N.N.%.( F.|.^ B.+X. U.v.b.z.=.e.$.$.' ",
"x.5.r.F.C.A...x.& A.*.$.$.e.e.a.` ].S.q.c.&.* &.R.&.~.z.W.x.s.A.",
".X0.A.7.9.].s..X. ` d.|.`..Xa.`.@XU e.}.&.R., v.=. .oX .e...#.9.",
"E d.5X:XwX=XA.E 5X#X' E _ :X=X5X;Xr.{.N.0X-XtXB.~.}.-XR.{.S.N.B.",
"s.d.:X9.|.a.A.V.wX) ) V.`.wX`. .|.D./ &.0X+XyXk.c.}.3Xv.B.z.z.e.",
"9.'.qX$.D.( V.a.yXT `.|.T 4X*.|.%.B.&.yXR.^ X 8XX.}.0XN.v.c.N.z.",
". X qX. > > . > 0X2 >     iX6XiX8Xo X 7XyX7X3X0X& & 0Xm . & 9 X ",
"x.%.yXk.k.}.X.OXtX@.} T.T.aX-.   Xc.~.tX .&.}.0X..&.3XR.z.B.U.X ",
"..B.8XyX8X9XU.U.iXeXaX9X-.,XrXuX2X X=.8X}.z.=.3XW.&X<X7XiX8X<X* ",
"R.&...&. .U.o.Y.X.@.+. X@.$X/.q (.Y.L.v.U.B.B.W.Q c.~ c.c.!.$X. ",
"u.C.A.S.XXQ.Q.k.U. XY.$X=.(.Y.o +.(.^.o.U.c.e.&.{.XXv.c.O.Y.L.7 ",
"0.u.s.R 0.7.XXr.B.k.Q c.c.!.=.X $XY.Q ).U.W.~ Q. ...c.U.L.).[ . ",
"j.j.d.1.h.j.[.A.XX7.V c , , H , X P P r . m m V v t , $ z D H % ",
"3.1.1.j.0.0.( 9./ V , & X . , X i . q = M . > o o , & X 7 X D % ",
"o X o , > o . o > r < . w O   p @ + L o w   o & X 3 8 % % 4 h - ",
"9.9.9.#.e.B.%.Y H o   q O O e f   a   +   s & . 1 3 ; - - 4 G ! ",
"V.F.A.e.N.W.X.i . < O p O rXsX>XsXeXsX>Xd o . D 7 & % 3 4 j I _.",
"r.C.x.k.q.X.D .   w a   dX{ @ ]   y   %XeX  L   * $ * 8 z B ! n.",
"m.x.E.~.b.J 7 $ X q w e dX:.@ @ a y # ;.aXiXo r & 1 3 7 F | m.n.",
"M.6.l.E.| 8 X X 1 . .   sX1XeXsXsXaXeXaX+ uX< . & 1 * 3 K m._.v.",
"P.n.n.6.J 7 $ * . r u w   sXsXe ;.# aXaX+ uXd < & , 0 F O.m.I.x.",
"I.I.6.J l ; % $ = $ q . o ,XaX[ ] d aXeXiXs   2 1 9 K k.~.v.l.l.",
"% x l : : $ ; ; * = $   X @.*XaXpXiX1Xu o 1 & o r 5 ; $ $ $ $ * ",
"z ! G z z - : 7 ; 0 M r & . & 2 o > H . & 9 , 5 V J / q.w.w.r.M.",
"- F - % % $ % % X $ * 3 3 * X X & . * * C , X 3 Z R x.F.S.u.g.Z.",
"% G l : l 8 n l b c 4 4 6 v Z A Z 8 3 6 V 3 ; A >.r.Z.g.p.1.<.p.",
"X F n k c k c ; l j j h h 4 h h 4 Z c b v b S >.i.u.p.p.p.f.f.f.",
"0 k.v.x.m.m.S.>.5.8.J.K.i.i.G.J.4 w.w.u.>.>.,.t.<.1.,.2.f.f.2.1.",
"$ ..x.x.m.C._.u.Z.Z.i.t.t.4.4.4.$ 6.8.K.t.K.K.i.H.i.H.H.H.H.3.2.",
", z.W.x.r.w.Z.8.t.t.t.y.G.G.G.G.g J.6.K.,.t.i.y.y.3.3.3.2.2.3.H."
};
