/* XPM */
static char *f8e04b6f2b5f4b0ff7378c3213e0a9e67hTvfIlU8AZdR1hU[] = {
/* columns rows colors chars-per-pixel */
"32 32 175 2 ",
"   c #140000",
".  c #1C0100",
"X  c #1C0900",
"o  c #240200",
"O  c #2A0501",
"+  c #240A01",
"@  c #2D0A00",
"#  c #2B070A",
"$  c #270E09",
"%  c #320D02",
"&  c #3A0E01",
"*  c #330C0E",
"=  c #261100",
"-  c #2D1303",
";  c #2F1805",
":  c #341303",
">  c #3B1504",
",  c #331C03",
"<  c #3C1904",
"1  c #35120A",
"2  c #3A150C",
"3  c #351B0B",
"4  c #3D1B0C",
"5  c #350E11",
"6  c #371310",
"7  c #3A1413",
"8  c #3D1A12",
"9  c #3D1619",
"0  c #3E1918",
"q  c #431503",
"w  c #421B06",
"e  c #491907",
"r  c #441609",
"t  c #421C0A",
"y  c #4B1C0C",
"u  c #401713",
"i  c #421C14",
"p  c #4A1F16",
"a  c #431C1A",
"s  c #422004",
"d  c #44210D",
"f  c #452113",
"g  c #4B2315",
"h  c #442813",
"j  c #4C2915",
"k  c #45211C",
"l  c #49251A",
"z  c #472D1C",
"x  c #4C2A1B",
"c  c #512314",
"v  c #512D17",
"b  c #53241A",
"n  c #542C1C",
"m  c #533116",
"M  c #58361D",
"N  c #4D2420",
"B  c #4E2A22",
"V  c #542F26",
"C  c #5A2E25",
"Z  c #553327",
"A  c #5B3423",
"S  c #573B26",
"D  c #5B3A25",
"F  c #55392E",
"G  c #603D27",
"H  c #62362B",
"J  c #633929",
"K  c #673B30",
"L  c #683E32",
"P  c #64432E",
"I  c #674637",
"U  c #684C37",
"Y  c #6F4C38",
"T  c #73473C",
"R  c #714D3B",
"E  c #655035",
"W  c #6C503B",
"Q  c #6D593E",
"!  c #725037",
"~  c #765836",
"^  c #76533D",
"/  c #79573B",
"(  c #7B5B3C",
")  c #7E623D",
"_  c #6E5443",
"`  c #755340",
"'  c #795642",
"]  c #7D5A44",
"[  c #725A4A",
"{  c #7D5D4A",
"}  c #725A50",
"|  c #785D54",
" . c #756043",
".. c #7C6144",
"X. c #7C664D",
"o. c #7D6452",
"O. c #7E6759",
"+. c #81633D",
"@. c #815E46",
"#. c #825E4B",
"$. c #865F50",
"%. c #846345",
"&. c #866A44",
"*. c #8B6B45",
"=. c #85634B",
"-. c #89674C",
";. c #846C4C",
":. c #8C6B4B",
">. c #8F714F",
",. c #917246",
"<. c #92724C",
"1. c #856453",
"2. c #8A6653",
"3. c #836B54",
"4. c #8D6B54",
"5. c #856A5C",
"6. c #8D6B59",
"7. c #916E55",
"8. c #916E5C",
"9. c #867053",
"0. c #8C7254",
"q. c #8B705F",
"w. c #937253",
"e. c #997553",
"r. c #957952",
"t. c #97725D",
"y. c #97755C",
"u. c #96765F",
"i. c #95725C",
"p. c #987559",
"a. c #99775C",
"s. c #967F5F",
"d. c #97785B",
"f. c #9B7A5E",
"g. c #846962",
"h. c #826964",
"j. c #826867",
"k. c #866A69",
"l. c #8A6E6A",
"z. c #8C6F69",
"x. c #8D7760",
"c. c #8E7861",
"v. c #8C736C",
"b. c #8E736C",
"n. c #8D716E",
"m. c #907363",
"M. c #957561",
"N. c #947563",
"B. c #917766",
"V. c #957465",
"C. c #957463",
"Z. c #9A7461",
"A. c #9A7664",
"S. c #937863",
"D. c #947A63",
"F. c #937D66",
"G. c #9C7862",
"H. c #9E7B63",
"J. c #937668",
"K. c #957B6C",
"L. c #9A7F6E",
"P. c #9B7A6B",
"I. c #937573",
"U. c #A17F63",
"Y. c #A17C6C",
"T. c #978368",
"R. c #9A816B",
"E. c #988469",
"W. c #9C8870",
"Q. c #A28463",
"!. c #A3836A",
"~. c #A4826C",
"^. c #A9876D",
"/. c #A68370",
"(. c #AD8A77",
/* pixels */
"O @ O O O O O + . z = . = X X   = . $ X $ +   -     X = =     , ",
"*.*.:.-.:.2.2.5.z [ _ o.c.Q X.W.v.O.n.k.g.} F [ B.c.X.' 0.0.X.X.",
"e.e.e.e.i.C.M.M.. q.c.o.c.E.E.X.I.k.I.n.v.| F [ o.R.S.X.,.T.T...",
"*.:.:.7.4.4.6.6.. b.R.{ 3.9.E =     . . O . . + - U q.0.9.X. .,.",
"<.e.<.7.w.8.i.C.8 o.x.S.=., + , 0 6 0 7 k a @ Z o j ' D.E.0.-.Q.",
"*.:.:.7.4.4.2.6.O 2.5.Y h   = S B 0 a 2 8 1 o g > % : J p.w.=.7.",
"<.e.w.w.8.8.8.x.o C.1.4 : h P S V a N u u 2 o p l > o w #.G.4.-.",
":.*.:.:.7.6.6.6.% I 4 + j P M < 2 % u 2 u 2 . i & t & > T Z.t.2.",
"w . w % . 4 % O % o % g A j w w r 2 i i * O O > l & 2 g . > r . ",
"e.,.<.d.4.Z.Y.^ O % p A n e w w 2 i i i % o O 2 > 1 w f O ] $.< ",
"+.r.~ 0.4.@.8.> o p L J g > > r > i f 4 O o @ 4 % f 4 : O Y.Y.@ ",
"<.Q.>.p.G.8.R O % C T J r q q r < i f 2 o o O 3 : g 4 @ . P.V.. ",
"&.) <...4.2.w . p H K c & q e q < d 3 - o . - 3 3 3 3 3 + V.J.1 ",
"r.+.Q.0.H.8.< f C C b r q q e q 3 3 : + . + : 3 3 - - 8 + 5.5.; ",
"&.&.&.>.w.D @ p C f r r e q q q 3 , + X + ; 3 ; 8 3 : ; . O.| . ",
">.Q.~ f.i.: @ e b r & e y q q e 4 3 .   X 3 8 ; ; 3 = = o K.b.+ ",
"o + @ @ < . w v d r > < t t > % k # . # 9 7 6 2 N + f O @ . d . ",
"w.7.:.=.~ : m M s < < > < < w i 7 o o # 7 9 7 7 o O . @ O { 6.4.",
"p.p.p.w.%.@ s t < < < > : > 4 i # o o * 7 7 6 8 8 V o O > 8.4.1.",
"-.%.7.7.=.: h g < < > 1 < 3 2 % o # * 5 7 6 6 7 O : % . ' 2.6.=.",
"i.7.i.t.2.% t j t 3 2 > i 4 % o # 5 9 9 7 6 * % o o @ t Y.6.7.a.",
"M.2.6.8.#.O 1 t f 4 2 7 7 2 O . 5 9 a 9 6 2 & O 4 : @ ' =.6.! p.",
"8.$.8.A.5.@ 4 k 4 i i 7 % O O * 6 a 0 1 * 2 * + o O < 4.@.p.:.Q.",
"6.#.6.C.1.o @ & 1 i k 2 o . O a 5 9 6 % & 2 : o % % @.7.H.@.H.( ",
". r o o : . o 2 B % . . O 7 7 % N % % % o % > : o + O O + o O + ",
"% 2.8.8.A.` i . % % 7 0 0 i k B @ o % 2 % O + . 2.-.-.-.-.*.%.*.",
"o A.~.6.A.8.R 2 o @ 2 2 2 @ O O 7 > 4 2 O o j ] 7.i.w.w.e.<.e.<.",
"@ M.8.! =.P./.4.O o o O t x a 1 1 @ . . @ t R ^.:.:.:.*.*.*.*.*.",
"% :.7.-.u.i.Z.6.P j % o O @ @ o : % O t #.i.%.-.w.<.<.<.<.<.,.,.",
"O ( -.7.f.@.@.=.i.2.Y g O o % 4 % ^ 2.4.~.H.-.p.-.-.*.*.*.*.*.*.",
": -.w.w.A.:.p.Y.4.8.8.2.] { i./.. 6.(.1.] ^ ^ f.w.<.,.<.<.,.,.,.",
"o &.7.%.:.*.>.7.p.7.2.7.M.i.2.=.O 4.A.' H.^.-.%.:.*.*.*.*.*.,.+."
};
