/* XPM */
static char *_5c1bd348e1b48e1d39fe4110f60186dvvkGQVcLstHrvQnc[] = {
/* columns rows colors chars-per-pixel */
"32 32 228 2 ",
"   c #030300",
".  c #0C0100",
"X  c #00020B",
"o  c #0E0208",
"O  c #070D06",
"+  c #130100",
"@  c #1B0100",
"#  c #140B01",
"$  c #1B0A00",
"%  c #130C0B",
"&  c #11010C",
"*  c #071507",
"=  c #151708",
"-  c #1A1216",
";  c #150B13",
":  c #240400",
">  c #2A0300",
",  c #2A0C00",
"<  c #250A06",
"1  c #320C00",
"2  c #251203",
"3  c #2A1301",
"4  c #29190D",
"5  c #341400",
"6  c #34130A",
"7  c #341C0B",
"8  c #3C1806",
"9  c #2B1415",
"0  c #241512",
"q  c #351E18",
"w  c #102512",
"e  c #3C200A",
"r  c #282119",
"t  c #332115",
"y  c #201525",
"u  c #351C20",
"i  c #302523",
"p  c #243827",
"a  c #302833",
"s  c #273638",
"d  c #3F372A",
"f  c #411D11",
"g  c #422408",
"h  c #40231B",
"j  c #48361F",
"k  c #553D26",
"l  c #452C30",
"z  c #3D4D3C",
"x  c #25472F",
"c  c #46433B",
"v  c #5C4A2E",
"b  c #684D2F",
"n  c #70482E",
"m  c #6A4A36",
"M  c #79573D",
"N  c #6E593A",
"B  c #79613A",
"V  c #593E43",
"C  c #3B5245",
"Z  c #3A564C",
"A  c #3C5752",
"S  c #415446",
"D  c #505445",
"F  c #45565D",
"G  c #635545",
"H  c #755A4A",
"J  c #785A47",
"K  c #6E5D5A",
"L  c #4B6758",
"P  c #576F5F",
"I  c #7B6548",
"U  c #7F6B55",
"Y  c #76635A",
"T  c #7C645A",
"R  c #7D6A5A",
"E  c #776652",
"W  c #77725C",
"Q  c #7C5F63",
"!  c #5E6C77",
"~  c #786863",
"^  c #676F71",
"/  c #7B7A70",
"(  c #895E31",
")  c #8D642D",
"_  c #8B6C3D",
"`  c #876735",
"'  c #97673F",
"]  c #926A3D",
"[  c #87703E",
"{  c #89703A",
"}  c #9B723C",
"|  c #805C44",
" . c #815E49",
".. c #885E46",
"X. c #845F56",
"o. c #846345",
"O. c #8C6547",
"+. c #866C45",
"@. c #8B6B45",
"#. c #84644B",
"$. c #8A654C",
"%. c #856B4C",
"&. c #8A6B4C",
"*. c #956444",
"=. c #996544",
"-. c #946A42",
";. c #9A6E44",
":. c #92664B",
">. c #946B4C",
",. c #9B6C4C",
"<. c #98664B",
"1. c #857044",
"2. c #8E7344",
"3. c #8E724B",
"4. c #83714B",
"5. c #917244",
"6. c #94724C",
"7. c #9C784A",
"8. c #866653",
"9. c #8B6455",
"0. c #846B54",
"q. c #8B6B53",
"w. c #84655A",
"e. c #89655A",
"r. c #8D6D59",
"t. c #846A5C",
"y. c #936C53",
"u. c #9B6E55",
"i. c #946A5E",
"p. c #8E7153",
"a. c #8D715A",
"s. c #867456",
"d. c #947453",
"f. c #997155",
"g. c #94735B",
"h. c #9D735A",
"j. c #947B5B",
"k. c #9C785F",
"l. c #A1785C",
"z. c #836665",
"x. c #866B6A",
"c. c #966E61",
"v. c #8B7465",
"b. c #887568",
"n. c #947462",
"m. c #9A7463",
"M. c #947D61",
"N. c #9C7B63",
"B. c #91756A",
"V. c #9D7A69",
"C. c #96766C",
"Z. c #8C7C76",
"A. c #947777",
"S. c #A17D6A",
"D. c #A77D64",
"F. c #9C845F",
"G. c #988365",
"H. c #8D8B7F",
"J. c #998376",
"K. c #A1856C",
"L. c #AE856B",
"P. c #AC8B76",
"I. c #A78770",
"U. c #B19375",
"Y. c #759681",
"T. c #968A85",
"R. c #8B8F9A",
"E. c #9D8D90",
"W. c #979995",
"Q. c #85958A",
"!. c #A49C8B",
"~. c #A6898D",
"^. c #8DA996",
"/. c #B4A59C",
"(. c #8694A1",
"). c #9BB4AD",
"_. c #9BA8B4",
"`. c #99A7A8",
"'. c #A7B6A4",
"]. c #BBBDB2",
"[. c #A6ABA5",
"{. c #C0B1AE",
"}. c #BAC4B3",
"|. c #A8C5B3",
" X c #CDC7B8",
".X c #B5B1C0",
"XX c #BBBFD0",
"oX c #AFB5C5",
"OX c #C9BBCA",
"+X c #BEC7D0",
"@X c #B6D2C6",
"#X c #C7C2CB",
"$X c #D3C7C9",
"%X c #CBDBC9",
"&X c #D5D0D4",
"*X c #E8D7D5",
"=X c #C9E4DA",
"-X c #DBE4DC",
";X c #DAE4D7",
":X c #E7E5D4",
">X c #E7F0DF",
",X c #F7E4DE",
"<X c #D9D9E4",
"1X c #E6DFEB",
"2X c #EEDCE8",
"3X c #D9E8EA",
"4X c #DBF7EB",
"5X c #E8EAE7",
"6X c #F2E9E3",
"7X c #F9E6E8",
"8X c #E9F3E9",
"9X c #F1FEEC",
"0X c #FCFBEE",
"qX c #F9F2E8",
"wX c #EDEBF3",
"eX c #E5EBF2",
"rX c #F5EBF1",
"tX c #ECFDF3",
"yX c #EEFEFB",
"uX c #FEF5F5",
"iX c #F3FFF1",
"pX c #FDFDF3",
"aX c #F5F3FD",
"sX c #F3FFFE",
"dX c #FFFAFE",
"fX c #FEFDFF",
"gX c #FDFEFC",
"hX c #FDF2FA",
/* pixels */
": : : : > > > > : 6 @ f > > : > : 8 @ > 8 8 @ f > > > > > > > > ",
"&.8.8.9.e.e.w.w.: w.e.V.9.m.D.G.#.g.#.m.q.#., J 9.9.9.9.9.e.9.X.",
"d.d.d.d.g.g.c.n., S.r.&.#.&.M &.p.q.#.N.%.N.5 P.y.g.d.f.g.g.h.i.",
"@.@.@.&.%.&.q.8.: q.m I j.j.B F.j.p.a.s.b p.+ o.&.&.&.@.-.@.&.@.",
"} 5.5.5.&.6.p.p.: K.j.j.F.F.B +.N I G.j.%.U., +.3.3.3.6.5.5.2.5.",
"_ _ _ @.@.&.%.%.$ G.j.N v 4.4.s.G.M.G.I I I 3 3.+.+.+.@.@._ _ _ ",
"5.] 5.5.6.p.a.a.7 J k j 2 # + # 2 + 4 3 d + $ G.s.3.3.3.3.3.3.2.",
"] @.@.&.&.q.0.t.+ . e  X0XqX:X0XpX6X0XqX$X7 . E 0.s.4.%.%.@.&.&.",
"1 1 > 1 : > t @ + OXuXpX6XuXgXuXrXdXdXdXhXhX].+ + + , @ , + 8 @ ",
"o.O.O.m.X.e.z.9 rXdXhXhXwXaXfXsXaXdX<X5XfX$XhXdX. ~ z.T.G B.C.6 ",
"u.<.9.S.C.A.Q + 2XOX1XaXgXsXsXaXsXeXsXaXwXfX$XhX- E.u . A.z.z.< ",
"<...J $.e.x.~ + & y ].XXoX_.XX3X3X#XR.<XOXwXW.; o 7X*XdXi V ~.+ ",
",.,.O.y.8.B.x.9 rXa X X s ! (._._.`.eX^     ; 5Xo & 0 uX7Xl x.9 ",
"( ' ;.f.#.r.T + dX&XfXsX3XF X X   w   O iX8XfXgX  T.Z.. dX+ Q @ ",
") } 7.7.>.a.R . 6XuX3XyXeX=X3XyXtX9XiX}.0X9X>X9X  ~ T.9 7X@ Z.< ",
") ] ) _ _ j.s.+ /.uX8X8XyXyX@XZ L * w tX%X9XpX}.r K Z.. pX@ Q @ ",
", > , : , @ $ $ . pXgX-XtXL A Z ^.x L p tX8XtX; c   . Y 7 3 + , ",
"+.+.o.%.%.8.0.U r !.0X-XsXA ).L =XY.|.z yXsXsX  % % t 0X. J.a.N.",
"d.6.d.d.g.a.v.v.$ 4 H.pX3Xs ).4X@X@XP C 3XiX/ r $XgX,X+ B.k g.#.",
"@.%.&.&.&.0.0.t.G #   ].pXQ.S C ^.'.z ^.3X[.; W.i . $ A.m.G.I.#.",
"3.3.p.q.r.a.a.a.J.# #   %X%X;XS S p }.;X].O % ~ b./.B.H 8.m.M #.",
"&.&.&.&.&.q.q.8.H + D #   D >X'.:X X Xc .   4 ~ Y x.H P.m.9.n U.",
"p.p.p.d.y.y.a.r.a.3 0.b.O O = # O d     r Z.3 v.w.w.V. .M h.L.n ",
"&.0.&.&.&.q.&.q.I 3 v.v U.W W / H.E b.R B.R , E v.8.| S.y.&.:.L.",
"@ g , @ 5 > > > > : : $ $ $ # # + t : + , : : : : > : > > > > > ",
"g q.#.#.y.O.y.u.$.$.%.%.%.%.U 0.q t.T H r.I 0.q.$.&.@.O.O.&.:.:.",
", q.k.f.k.:.h.D.f.f.d.d.d.p.j.p., e.C.i.n.&.d.l.6.6.d.7.7.d.6.f.",
": 0.k.d.y...y.u.:.:.:.:.@.@.+.%.> e.m.q.d.J &.6.@.@.@.@.@.@.@.@.",
"5 g.N.y.h.y.h.u.,.,.,.>.;.>.5.6.1 c.V.q.h.&.7.6.5.5.2.2.3.3.3.3.",
", q.q.J y.>.u.<.=.=.*.*._ ] @.@.> 9.9.| &.&.6.@._ _ [ 2._ +.+.+.",
": a.f.$.i.u.h.,.,.,.,.;.;.;.;.;.> i.m.$.d.6.7.2.2.2.{ 2.1.2.2.3.",
"@ a.S.9.u.<.<.*.=.=.=.' ' ' ' *.> c.S.y.y.@.2.` { { [ [ 1.[ 1.4."
};
