/* XPM */
static char *f13434ffbf12479081433f4d233d535eIvGVc7iamfeG1lLr[] = {
/* columns rows colors chars-per-pixel */
"32 32 209 2 ",
"   c #0F0000",
".  c #150100",
"X  c #1B0100",
"o  c #1C0A02",
"O  c #15030C",
"+  c #1C0B0C",
"@  c #170808",
"#  c #1A0511",
"$  c #190914",
"%  c #240300",
"&  c #2A0501",
"*  c #240A02",
"=  c #2B0B02",
"-  c #2A0709",
";  c #230D0B",
":  c #2A0A0A",
">  c #230209",
",  c #330D02",
"<  c #350C07",
"1  c #241300",
"2  c #2D1201",
"3  c #2C140D",
"4  c #27140B",
"5  c #341301",
"6  c #3B1403",
"7  c #35120A",
"8  c #3C150D",
"9  c #3C1B0D",
"0  c #391903",
"q  c #2D1314",
"w  c #361311",
"e  c #3C1A13",
"r  c #3C1B18",
"t  c #3C2002",
"y  c #3C210C",
"u  c #3B2112",
"i  c #3F2318",
"p  c #431E0B",
"a  c #491F0F",
"s  c #411705",
"d  c #411C16",
"f  c #441D1B",
"g  c #46200B",
"h  c #462413",
"j  c #4C2415",
"k  c #4B231A",
"l  c #49291C",
"z  c #472917",
"x  c #552C1D",
"c  c #5A2F1E",
"v  c #4E391E",
"b  c #54321D",
"n  c #56371B",
"m  c #421C24",
"M  c #482723",
"N  c #532C23",
"B  c #522C2B",
"V  c #4E3226",
"C  c #563121",
"Z  c #5D3621",
"A  c #5B3824",
"S  c #5B3D35",
"D  c #653F28",
"F  c #673E2A",
"G  c #5F4632",
"H  c #644B2C",
"J  c #6C442B",
"K  c #644636",
"L  c #674B3B",
"P  c #704B30",
"I  c #784A3A",
"U  c #6C523B",
"Y  c #72543E",
"T  c #79553B",
"R  c #735A3C",
"E  c #7A593A",
"W  c #7D6038",
"Q  c #674341",
"!  c #6C5444",
"~  c #6E5948",
"^  c #6C554D",
"/  c #705644",
"(  c #765C45",
")  c #7E5C45",
"_  c #725449",
"`  c #755D4A",
"'  c #795E49",
"]  c #7F5642",
"[  c #7A5D52",
"{  c #7B5B56",
"}  c #7B6345",
"|  c #74624A",
" . c #7C634A",
".. c #7E694B",
"X. c #7D6352",
"o. c #7E6B55",
"O. c #7F6A59",
"+. c #86633D",
"@. c #8B693C",
"#. c #89663E",
"$. c #926F3D",
"%. c #91703D",
"&. c #825645",
"*. c #835E43",
"=. c #895F47",
"-. c #8B5D4E",
";. c #855D53",
":. c #846244",
">. c #8B6545",
",. c #8D6A43",
"<. c #83654D",
"1. c #8B644B",
"2. c #856B4E",
"3. c #8C6A4C",
"4. c #936E4C",
"5. c #936E42",
"6. c #8E7149",
"7. c #8F7344",
"8. c #95734C",
"9. c #98794C",
"0. c #96744A",
"q. c #836354",
"w. c #8B6352",
"e. c #836C52",
"r. c #8C6C54",
"t. c #84655A",
"y. c #8A655C",
"u. c #866B59",
"i. c #8B6D5D",
"p. c #936C53",
"a. c #996F57",
"s. c #936C5A",
"d. c #996D5B",
"f. c #906552",
"g. c #837254",
"h. c #8C7355",
"j. c #85735C",
"k. c #8C735C",
"l. c #8D795E",
"z. c #957354",
"x. c #997453",
"c. c #93745C",
"v. c #9C755B",
"b. c #92795C",
"n. c #9B7A5B",
"m. c #9C7953",
"M. c #8A6E62",
"N. c #876566",
"B. c #916E68",
"V. c #8D7462",
"C. c #8F736C",
"Z. c #947563",
"A. c #9E7361",
"S. c #947B63",
"D. c #987E65",
"F. c #937469",
"G. c #967B6B",
"H. c #9A7E6B",
"J. c #916F70",
"K. c #9A7D73",
"L. c #997670",
"P. c #A37B62",
"I. c #A57768",
"U. c #AB7D6D",
"Y. c #A07D79",
"T. c #9F815F",
"R. c #A38259",
"E. c #968265",
"W. c #9B8463",
"Q. c #96846B",
"!. c #9C826C",
"~. c #9D8372",
"^. c #9D8675",
"/. c #A4856B",
"(. c #A48A6D",
"). c #A78B7C",
"_. c #A58A75",
"`. c #AD917C",
"'. c #AC8E8E",
"]. c #AE9787",
"[. c #B59B85",
"{. c #B7A28F",
"}. c #B8A084",
"|. c #D1B6A5",
" X c #E9CEB7",
".X c #F1D7BB",
"XX c #E8D7B9",
"oX c #E1CBC0",
"OX c #ECD4C1",
"+X c #F4DAC4",
"@X c #F3D9C8",
"#X c #F6DDD8",
"$X c #FDE4C6",
"%X c #F7E1C9",
"&X c #FFE5D2",
"*X c #FFEFDC",
"=X c #FFEEDB",
"-X c #FBE4D8",
";X c #FFF3D4",
":X c #FFF2DA",
">X c #FFF4DD",
",X c #FFFCDE",
"<X c #FFEFE3",
"1X c #FFEFEB",
"2X c #FFF1E4",
"3X c #FFF9E6",
"4X c #FFFAE3",
"5X c #FFF9E9",
"6X c #FFFAEA",
/* pixels */
"& % , % & & % & X & & X 5 5 5 X . * X . % * . X : X * . = = 2 o ",
"r.<.r.r.y.F.B.L.& q.Z.s.1.H n.T.b.} e.!.~.` i t.[ X.K.j.S.b.b.W.",
"n.2.<.Z.y.t.y.y.X y.q.Q.Z.:./.z.2.e.S.b.u.u.% [ K.M.G.u. .2.R h.",
"h.<. .`.i.u.M.t.3 [ i.h.S.<.h.R b.:.e.e.V.G.. K.C._ t.i.D.}.2.h.",
"} 2.E.;X+X&X6X6X  C.6X~ S.| }.h.$X(.(. X5X|.u 2X<X@X5X*X%X.Xn.<.",
"E.l.l.%X!.X.O.! u ~ L 6XV.g.v >X(.U U /.*XF.. `.t.i.OX/.H.!. .l.",
"..o.g.>X^.o.^.O.  V.{.| OXQ.,XE.| !.b. .>XH.* X.V.G.*X` ' ' q.E.",
"..j.g.,XQ.| Q.j.o V.| o.6Xo.6X|  .!.i./ 3X` = k.' u.3X[ (.S.k. .",
"1 o o ,XXX,X,X%Xo 1   o   -X4 . * . % . 4XX * X * % &X* * X = X ",
"g.g.| ,X(.j.E.Q.| | Q.~ 6X].oX4 ! `.G.G.3X'  .D.k.( 4XU u.k. .y ",
"..l.g.;X2.H R g.E.l.o.o.1X^ #Xw V.X./ ' >Xu.k.( k.} >XU k.~.` . ",
"h.l.h.$X(.W.h.g...| G 6X^.J.'.1XK.K u.].>XR h.h.k.S.>Xk.Z.~.t.% ",
"g.2.h.$X.X,X;X;Xk.S.3XS K.Q '.X -X'.U @X>X.X(.} <.b. XS.u.V.O.= ",
"c.h.) (.:.b.3.r.(.<.K M.Y.J.N.% N.M.G._.e.....W 2.e.(.h.X.Z.M.e ",
"p.r.<.z.E 8.3.n.E c.C K & : m m r % V . z 2 n 2 t 2 2 y = u M . ",
"s.s.r.v.r./.3.r.v.l e . m > X # . . * = . o o 2 * * X 9 X X l 3 ",
"% & , & & = > . i : . . O $ $ O + @ o o * o % % X 5 6 & % < s , ",
";.s.y.;.y.B.{ S q + O   O $ $ O + + + + o o * % 7 7 , , , 6 c I ",
"d.I.s.y.s.G./ z * . . . @ + + @ $ + ; + ; * ; = 7 & & 6 s s F A.",
"p.1.1.p.w.Y z % X X   o o + o @ ; ; ; ; ; ; = = = & & 6 a x I d.",
"n.1.3./.z.C = * o o X o o o o . 4 ; ; : 4 = = = , 5 5 6 x &.f.f.",
"p.*.1.v.T 0 . * % * o * o o o o ; ; ; ; ; = = = & 5 , 6 c f.I.a.",
"c.p.r.) A 0 & * * * * * * * * ; ; ; = = = = = = & 5 s c &.4.a.p.",
"y.A.q.x 5 6 = X & = * * * = 4 : = * - * = = & = 5 6 c =.P.a.-.>.",
"X k 8 7 < % & - < : : : : ; : : w % & & % & 5 , s 0 , = & % & , ",
"f K B f r - w w - - - - - - - - , & < p 6 5 6 5 j D T >.>.>.1.4.",
"& M < % % % - % - - : & : : : - & % & 5 , % & , n P 4.v.x.4.4.m.",
"% B d 7 d 8 f d d d d d d d d d N N k j j 6 a D *.,.p.8.>.+.>.5.",
". b z g d p g 5 p p p p p s p p , j j a j s p J p.4.3.,.4.0.8.8.",
"t 3.r.2.z.p.z.:.z.x.z.z.x.x.x.a.s &.d.-.d.p.>.P.1.>.+.,.0.0.5.+.",
"= E 6.6.0.0.R.6.#.#.@.@.@.@.@.>.% -.I.-.A.A.1.d.x.x.8.x.m.9.0.,.",
"5 @.9.7.%.@.9.@.$.$.$.$.$.$.$.5.& d.U.&.f.a.=.p.4.4.4.,.#.>.5.9."
};
