/* XPM */
static char *_42cd7581c7f40b9aabc0823b1c846fbKLlLOb7CjMJG7j1c[] = {
/* columns rows colors chars-per-pixel */
"32 32 222 2 ",
"   c #050101",
".  c #0B0100",
"X  c #0E0C02",
"o  c #0C070C",
"O  c #140200",
"+  c #1B0200",
"@  c #150A01",
"#  c #1C0A01",
"$  c #130109",
"%  c #140D0B",
"&  c #1A0E0A",
"*  c #171508",
"=  c #0F1015",
"-  c #1B0A12",
";  c #240400",
":  c #2A0400",
">  c #240B00",
",  c #2A0C00",
"<  c #270B08",
"1  c #330B00",
"2  c #251402",
"3  c #2B1301",
"4  c #23160B",
"5  c #2A110A",
"6  c #331200",
"7  c #381806",
"8  c #210E10",
"9  c #221512",
"0  c #2A1410",
"q  c #2C1B12",
"w  c #2A1A1A",
"e  c #3B1F13",
"r  c #331C16",
"t  c #3B2307",
"y  c #23211D",
"u  c #2E2116",
"i  c #342015",
"p  c #34231B",
"a  c #3D251C",
"s  c #3D2414",
"d  c #241E2A",
"f  c #2C2129",
"g  c #3B2A22",
"h  c #332723",
"j  c #253221",
"k  c #3D362C",
"l  c #2A3933",
"z  c #363C36",
"x  c #462719",
"c  c #46280C",
"v  c #452D21",
"b  c #4A3424",
"n  c #4C3B2C",
"m  c #4A362F",
"M  c #56392E",
"N  c #563A28",
"B  c #4C3B35",
"V  c #5D3D32",
"C  c #503C35",
"Z  c #3D4D3C",
"A  c #294433",
"S  c #464237",
"D  c #594437",
"F  c #70482E",
"G  c #694735",
"H  c #6A543D",
"J  c #78573B",
"K  c #3C5245",
"L  c #3F534A",
"P  c #484144",
"I  c #44534A",
"U  c #515345",
"Y  c #535E58",
"T  c #6A4D43",
"R  c #65514C",
"E  c #685347",
"W  c #7D5D46",
"Q  c #76594A",
"!  c #7B5D4A",
"~  c #735844",
"^  c #6C5C5A",
"/  c #795C52",
"(  c #4D665B",
")  c #57685C",
"_  c #7D624C",
"`  c #7E6C4D",
"'  c #746140",
"]  c #7C6553",
"[  c #7C6B54",
"{  c #75635B",
"}  c #7C6B5B",
"|  c #786957",
" . c #77725C",
".. c #7B6B64",
"X. c #756B77",
"o. c #7B787B",
"O. c #7E7965",
"+. c #8A643D",
"@. c #8B6D3E",
"#. c #866537",
"$. c #926A3E",
"%. c #87703E",
"&. c #89703A",
"*. c #805C43",
"=. c #815E49",
"-. c #8C6645",
";. c #866C44",
":. c #8C6A45",
">. c #84644B",
",. c #8B664B",
"<. c #846A4C",
"1. c #8C6A4C",
"2. c #826246",
"3. c #946745",
"4. c #936B44",
"5. c #946C4C",
"6. c #986D4B",
"7. c #946B49",
"8. c #857044",
"9. c #8E7344",
"0. c #8E724A",
"q. c #927144",
"w. c #94724D",
"e. c #9A724B",
"r. c #997A4E",
"t. c #846654",
"y. c #8C6654",
"u. c #846B54",
"i. c #8B6A53",
"p. c #836759",
"a. c #89665A",
"s. c #84695A",
"d. c #8C6C5B",
"f. c #926E53",
"g. c #926D5A",
"h. c #8E7153",
"j. c #8D7854",
"k. c #8C735C",
"l. c #8F7A5C",
"z. c #867258",
"x. c #957454",
"c. c #9B7156",
"v. c #94735B",
"b. c #9A755A",
"n. c #957C5B",
"m. c #98785F",
"M. c #A07D5F",
"N. c #A0775B",
"B. c #946D61",
"V. c #857563",
"C. c #8C7364",
"Z. c #84726A",
"A. c #8D7A66",
"S. c #937463",
"D. c #9A7464",
"F. c #947A62",
"G. c #9B7B65",
"H. c #90756B",
"J. c #9A7C6B",
"K. c #927A6A",
"L. c #867677",
"P. c #997F70",
"I. c #856862",
"U. c #A27C67",
"Y. c #9A8364",
"T. c #9D8273",
"R. c #92877C",
"E. c #A2816D",
"W. c #AE856B",
"Q. c #A38672",
"!. c #A58A75",
"~. c #A58A7A",
"^. c #AC9472",
"/. c #B79378",
"(. c #759681",
"). c #938792",
"_. c #989C94",
"`. c #88948A",
"'. c #A58C87",
"]. c #A99789",
"[. c #B19580",
"{. c #8FA797",
"}. c #BDA59C",
"|. c #9EB2AD",
" X c #A7B6A4",
".X c #BCBCB3",
"XX c #B2B1A7",
"oX c #BBC1B2",
"OX c #A8C5B3",
"+X c #C6C3B7",
"@X c #D0CABE",
"#X c #BFDAC9",
"$X c #C9C7C1",
"%X c #D9CACA",
"&X c #C2DFCB",
"*X c #D2D6CA",
"=X c #D3CEDA",
"-X c #F5D2C6",
";X c #F0DBD6",
":X c #DBE3DA",
">X c #DCE2D6",
",X c #C6E7D4",
"<X c #FCE3CA",
"1X c #E6E6DB",
"2X c #FCE6D8",
"3X c #FFF4D7",
"4X c #E7DEE5",
"5X c #DEF5EB",
"6X c #DCEBE4",
"7X c #E0E7E3",
"8X c #EDEDE8",
"9X c #F6E9E7",
"0X c #FEF5EC",
"qX c #FFF9EE",
"wX c #FBF5E7",
"eX c #F5EEF8",
"rX c #EEFFF9",
"tX c #ECF6F7",
"yX c #FFFDF5",
"uX c #FEFDFC",
"iX c #F3FCF8",
"pX c #EAE8F3",
/* pixels */
"> > > # # # # # 2 t O > O : , > 3 # # O 3 > O , + > ; ; ; ; ; ; ",
"2.;.<.<.` [ [ [ . ] u.F.>.n.b.i.<.' ` l.V.! x ~ p.p.u.t.t.1.<.1.",
"x.x.j.j.l.V.l.V.# ~.Q.F._ 2.J f.^.l.Y.!.k.k.3 B.S.S.S.v.v.b.x.x.",
":.:.<.1.<.u.u.u.# K._ a.v.b.1./.` J <.j._ ~., J.s.y.y.y.y.1.1.1.",
"w.5.5.f.h.d.k.V.+ ~.H.G.U.U.=.b.j.n.Y.F.u./.; ! B.g.g.g.i.f.f.f.",
"-.:.1.1.i.i.u.p.O T.J.a.=.D.g.g.n.n.` J ] J.7 ~.a.y.y.y.i.1.1.3.",
"6.6.f.f.f.k.d.C.s / G G x 1 ; ; 7 t > 6 N 3 + S.B.g.g.g.g.f.f.f.",
"3.3.3.5.i.i.a.s.: $ e -X0X2X-XwX3X3X<X3X<XV O S.I.a.a.f.y.i.1.i.",
"1 1 1 1 + : x O > }.0XM M x V t.G ` H N p.0X[.5 , + ; ; ; : 7 ; ",
"+.3.-.N.i.i.u.q ;X~ C x a M V b H 2 s N I.v D 0X+ I./ '.V P.v.1 ",
"e.3.3.N.D.F.] + a r B C r 5 + v b * S i C R R 0 0 '.< + H.H.p.; ",
"e.3.J ,.<.k.] O @ # & < g p q g S u 4 p . w 8 $ O 9X%XuX0 T '.O ",
"e.e.:.h.<.F.V.4 0X&   9 h X B g X S . k P   . uX$ - O uX;XB ..q ",
"#.4.w.x.[ z.| X yX+X9XyX1X& . . @ w     4XuXeX4Xo ).L.. uX  ^ $ ",
"+.w.r.n.z.Y. .. @XyXwX@XyX9XyXuX8X8XuXuXeX=XuXpXo X.).f 4X- L.9 ",
"+.9.;.<.<.F...@ .XyXyXyXuXuX+Xz Y z l 6XuXuXpX=Xd X.o.. yX& ^ & ",
": ; : ; ; ; > + . yXuX1XrX) I L {.A ( l rXtXtX= P   . { q 2 O 2 ",
":.-.:.-.,.y.t.s.i ].0X:XiXI |.( ,X(.OXK rXuXuX  % o w yXO T.k.m.",
"x.x.x.c.v.b.S.C.# q R.uX1Xl |.5X#X&X) K 6XiXo.f %XuX2XO S.N v.>.",
":.:.1.1.,.i.u.s.E O . .XuX`.I I {.|.Z {.:X|.X _.f . @ P.S.E.E.>.",
"w.5.h.f.f.g.d.d.J.+ @ . *X*X:XS Z j oX>X.X% & ..Z.}.H.Q u.D.J 2.",
"1.1.1.,.1.i.i.i.Q @ E @   U 6X X1XoX+XS     4 ../ C.Q !.G.y.F /.",
"h.h.x.i.f.f.x.d.k.3 [ V.X   * X   k X . u R.> Z.I.p.J.=.J b.W.F ",
"1.1.1.1.y.1.i.i.W 3 A.D ]. . .O.R.| V.} A.{ 2 _ C.t.=.D.c.,.,.W.",
"@ c , ; 7 , 1 , ; ; ; + # # @ @ . e + O 3 ; ; ; ; : ; : : : : : ",
"t i.>._ f.-.f.f.,.,.<.<.` ` ` [ e I.] ! a.! u.1.,.,.:.1.-.,.,.3.",
"> u.n.x.b.,.f.U.b.x.x.x.j.j.j.n.> a.S.S.F.,.x.M.x.r.w.w.w.x.e.x.",
"+ <.v.i.f.*.,.6.3.1.1.:.:.;.;.<.; a.D.d.f.*.1.w.:.+.:.:.:.:.:.:.",
"3 l.G.i.b.f.c.c.6.6.6.6.q.w.9.w.1 B.D.g.v.5.w.w.q.q.q.9.w.0.0.0.",
"2 u.i.=.i.f.c.3.3.3.3.3.@.@.+.:.: a.y.*.1.1.w.@.@.%.%.%.@.;.;.;.",
"> z.F.<.v.c.N.6.6.6.6.6.e.4.4.w.: g.D.=.x.w.r.q.q.9.%.9.9.0.0.0.",
"+ k.G.y.g.5.6.=.3.$.$.$.$.$.$.3.: B.U.f.w.:.9.#.&.&.%.%.8.8.8.8."
};
