/* XPM */
static char *d90a3bb43bfe49f28866cb331381e68bs1Ye8CFepuCif9NO[] = {
/* columns rows colors chars-per-pixel */
"32 32 98 2 ",
"   c #160000",
".  c #1C0000",
"X  c #250300",
"o  c #290500",
"O  c #270800",
"+  c #2C0A00",
"@  c #340D05",
"#  c #341201",
"$  c #381600",
"%  c #351800",
"&  c #36120B",
"*  c #39140C",
"=  c #3C1D1C",
"-  c #451E17",
";  c #431C1E",
":  c #45220C",
">  c #452115",
",  c #482313",
"<  c #562F28",
"1  c #523227",
"2  c #552D35",
"3  c #7D5E3E",
"4  c #7E613F",
"5  c #7E5C43",
"6  c #7A5B56",
"7  c #7B6042",
"8  c #7D614C",
"9  c #7D6052",
"0  c #8C6D33",
"q  c #82623D",
"w  c #866E3E",
"e  c #8B6C3D",
"r  c #906D34",
"t  c #906C3D",
"y  c #8C7031",
"u  c #8E753F",
"i  c #93733D",
"p  c #825A41",
"a  c #825D4B",
"s  c #855F54",
"d  c #846444",
"f  c #8B6746",
"g  c #866D43",
"h  c #8B6B44",
"j  c #84624C",
"k  c #8A674B",
"l  c #856A4C",
"z  c #8C6B4C",
"x  c #916B45",
"c  c #946E4C",
"v  c #8E7344",
"b  c #8E714B",
"n  c #927244",
"m  c #987346",
"M  c #997B45",
"N  c #92724C",
"B  c #98724B",
"V  c #9D7B49",
"C  c #856453",
"Z  c #8A6653",
"A  c #856952",
"S  c #8C6A53",
"D  c #84655C",
"F  c #8B655C",
"G  c #86695D",
"H  c #8D6B5B",
"J  c #906755",
"K  c #926E53",
"L  c #926D5B",
"P  c #8E7152",
"I  c #8D715C",
"U  c #937353",
"Y  c #987355",
"T  c #997955",
"R  c #95725C",
"E  c #9A745A",
"W  c #977A5A",
"Q  c #9A7B5A",
"!  c #A57E5D",
"~  c #856662",
"^  c #8B6463",
"/  c #8D6962",
"(  c #8D6A69",
")  c #916B61",
"_  c #986D66",
"`  c #976E68",
"'  c #8E7161",
"]  c #947263",
"[  c #997462",
"{  c #947860",
"}  c #9D7C63",
"|  c #95726A",
" . c #9B746B",
".. c #966F71",
"X. c #917270",
"o. c #A37E64",
"O. c #A27E6A",
"+. c #A18061",
/* pixels */
"O O . O . O . O   = .   & . . O . O + O & ; . 2 X X X X o X X o ",
"l 8 A 8 I 9 ~ ~ = ~ 6 9 ( 9 9 I A S F Z F ( ; ..^ ^ ^ F Z Z Z Z ",
"b U U W I I X.X.O G | ' { 8 { +.Y W T L L H * F ` | ] R R R K Y ",
"g g g g b l A A . A I I I 7 l P h z z z z j + j F Z Z S z l h h ",
"u u v v b b P P % P Q l P b U b b n B Q Q z # z K K P c N n v n ",
"w w u w g g v g + d z 4 v b b h N v v n N q + d h z l h e h h e ",
"n v n b N b P b O S W d U P T c T N b T T d # c c U c N N N c b ",
"h h h z h z z z X U o.S S z c j N f f U U d # U z l z z h z h l ",
"o X o o o o o o o @ o # o o - X X X o O O X X X o o + # . O : . ",
"Z Z Z Z k Z Z k L J Z ) s ^ ) - F F Z F Z Z Z Z L S j R C Z L - ",
"R [ L _ L E E L O.R F  ._  .^ o ` ` ] ] ] R ] R +.[ S  .[  .H o ",
"F J Z Z J k J J K J a L _ _ ^ o F F F Z S S z Z ] S j L L  .F X ",
"K L K K K c c c Y Y J E J  ._ @ L L R H S U c b U T b E H } ] # ",
"J x x x x x t t t B x c p J J o Z Z z z h h h e v n z b p S z + ",
"c x c x t i i i t V m B f E J + K N b N v u u i i M n n w T c O ",
"x x x x x t x t x c x c c o.E o z l z h v h h e q v h z h Q P O ",
"O O X X o X o X < . - * o + o X . O O O & =   1 O O . O O . O O ",
"f k k Z F F F ^ ..; ( ^ F F F C C G G D 9 ( = X.~ ~ G G A A l l ",
"N U U Y L R ] ` F * F L ) [ [ R I { W I ' G & G | ' { I W P P U ",
"e e h h z z S Z 5 @ j S S S z l l l P S P 8 O 8 A A A l 7 g w w ",
"n i n n z N N K S $ S W Q T n N N N U W W b % b P b b b +.u u u ",
"e e e e h h h l d + q U U z N N b b h U P 7 + 7 z g g h 4 y 4 y ",
"n N N N b U c N z # d T U N N T T N U W T d # b N b b b v v +.y ",
"z h z l z z z z Y # d Y U k k K P l k U E d # I z l z v b g g w ",
". : o X # + + O X X X X O O o X X - o o : + @ + O o o o o o o o ",
"> ) F C L Z K L Z Z Z Z Z Z Z Z - _ ^ s J s J L k Z Z k Z Z Z Z ",
"+ ^  .| [ Z ] O.R R R R R ] ] ] o )  ._ _ J _ o.R E R R R R ) _ ",
"X ^ | / L a Z R z z Z Z Z S F F X ^ _ ^ ) a J J J k J Z J J Z Z ",
"@ `  .H R S U U b N N b U K L L @ _ _ J _ c Y B c c c B K K L L ",
"O Z S 5 z z n h e e e h h h z k o J J p c x B t t t x x x k x c ",
"O L W l B N +.y i i u n n n x N + J ! f m m V r t m m t x x c c ",
"X Y +.b n y i y y y 0 0 0 e t x o Y ! x m t i r r r r t t t x x "
};
