/* XPM */
static char *d076d70fa09a4edef190080fac03c242N8PSmzpwHNgOALfu[] = {
/* columns rows colors chars-per-pixel */
"32 32 212 2 ",
"   c #020103",
".  c #0B0100",
"X  c #02010B",
"o  c #0B030A",
"O  c #0A0909",
"+  c #130200",
"@  c #1A0100",
"#  c #140902",
"$  c #1D0C02",
"%  c #12070C",
"&  c #140A0B",
"*  c #1B0C0B",
"=  c #1C1203",
"-  c #16120E",
";  c #19110A",
":  c #0F0810",
">  c #140B11",
",  c #130D1B",
"<  c #161312",
"1  c #1E1213",
"2  c #1A1619",
"3  c #240300",
"4  c #2B0700",
"5  c #240B01",
"6  c #2A0C00",
"7  c #231402",
"8  c #2C1302",
"9  c #2D1F04",
"0  c #24130C",
"q  c #22180C",
"w  c #2B1E0E",
"e  c #2B140C",
"r  c #341502",
"t  c #381600",
"y  c #341A04",
"u  c #3C1A01",
"i  c #361D0D",
"p  c #221412",
"a  c #201519",
"s  c #231C1C",
"d  c #291B18",
"f  c #261B14",
"g  c #321E11",
"h  c #2F200D",
"j  c #34210B",
"k  c #3B220F",
"l  c #31280B",
"z  c #2D2318",
"x  c #382411",
"c  c #372912",
"v  c #3D2C1E",
"b  c #32211A",
"n  c #1D1522",
"m  c #281F22",
"M  c #302428",
"N  c #372D2B",
"B  c #3A2C2B",
"V  c #35322D",
"C  c #3E3331",
"Z  c #292526",
"A  c #47290C",
"S  c #402615",
"D  c #443119",
"F  c #4B351E",
"G  c #52371C",
"H  c #402F25",
"J  c #4C3728",
"K  c #533D2B",
"L  c #4C3E3B",
"P  c #5B432B",
"I  c #4E4236",
"U  c #544534",
"Y  c #594135",
"T  c #5F4836",
"R  c #5C4A3E",
"E  c #6D4A22",
"W  c #794F27",
"Q  c #704E2B",
"!  c #664B32",
"~  c #624D3A",
"^  c #67553F",
"/  c #6F543C",
"(  c #6C593F",
")  c #765738",
"_  c #735B3E",
"`  c #735936",
"'  c #584E42",
"]  c #554B49",
"[  c #5B5344",
"{  c #59544B",
"}  c #594D51",
"|  c #5E5357",
" . c #684E41",
".. c #6D5343",
"X. c #6C5D45",
"o. c #65554B",
"O. c #6A5748",
"+. c #655847",
"@. c #715746",
"#. c #745C43",
"$. c #7B5F45",
"%. c #745B4A",
"&. c #7A5D4B",
"*. c #665A53",
"=. c #6D5B53",
"-. c #6B5E58",
";. c #735D50",
":. c #6B6146",
">. c #746145",
",. c #7C6145",
"<. c #75634C",
"1. c #7B644C",
"2. c #77694F",
"3. c #7D6A4C",
"4. c #6E6552",
"5. c #6C615B",
"6. c #736351",
"7. c #7C6552",
"8. c #7C6A53",
"9. c #75635C",
"0. c #7B675C",
"q. c #75695D",
"w. c #7B6B59",
"e. c #7D705F",
"r. c #7C6B64",
"t. c #75696A",
"y. c #7B6F6B",
"u. c #726865",
"i. c #7D7364",
"p. c #7D706A",
"a. c #845D33",
"s. c #845F3D",
"d. c #88613C",
"f. c #996637",
"g. c #976739",
"h. c #93693F",
"j. c #95663A",
"k. c #826444",
"l. c #8D6B46",
"z. c #83654A",
"x. c #856A4D",
"c. c #8B6C4C",
"v. c #946B43",
"b. c #916E4A",
"n. c #9B6F48",
"m. c #8D714C",
"M. c #98744D",
"N. c #836554",
"B. c #856C53",
"V. c #8A6C53",
"C. c #81675A",
"Z. c #846B5B",
"A. c #886E5E",
"S. c #896555",
"D. c #8B7255",
"F. c #83745B",
"G. c #8B755B",
"H. c #867659",
"J. c #937354",
"K. c #947955",
"L. c #90755D",
"P. c #93785C",
"I. c #9C7856",
"U. c #A07042",
"Y. c #A7784E",
"T. c #A87E54",
"R. c #806D63",
"E. c #8D6F60",
"W. c #847263",
"Q. c #8B7464",
"!. c #867A63",
"~. c #8D7A65",
"^. c #85746C",
"/. c #89766F",
"(. c #847B6D",
"). c #8B7A6C",
"_. c #937665",
"`. c #937B63",
"'. c #997E64",
"]. c #93776A",
"[. c #947B6B",
"{. c #8D7C73",
"}. c #887772",
"|. c #927E73",
" X c #9A7E70",
".X c #A78059",
"XX c #AC825B",
"oX c #8F826F",
"OX c #918267",
"+X c #9C8163",
"@X c #94836B",
"#X c #9C836C",
"$X c #8A817C",
"%X c #948272",
"&X c #9C8572",
"*X c #9B8A7B",
"=X c #998876",
"-X c #A18262",
";X c #A58D6B",
":X c #B7916C",
">X c #A28672",
",X c #A28C74",
"<X c #A98D71",
"1X c #AC8D79",
"2X c #A49279",
"3X c #AE9376",
"4X c #B99979",
"5X c #978581",
"6X c #9B8F86",
"7X c #958D82",
"8X c #A9A091",
"9X c #B5A6A1",
/* pixels */
"6 @ 4 t 3 @ 3 3 @ r 3 @ @ @ 8 @ 5 7 $ + 5 @ + y + 8 5 @ r 5 @ t ",
"m.) V.z.z._.N.N.i N.]._.>XP.P.z.H._ G.8.&X~.x &.Z.>XS.k.D.k.d.b.",
"K.l.'.c.S.>XE.].@ N.N.&.'.G.B.D.B.:.2X#.Z.<.+ Q.@.>X1.V.K.m.K.m.",
"k.c.k.S.V.&.C.E.i ].A.7.#X1.#.P.G.OX,X^ ~.Z.$ Q.x N.@.P.x.3.K.` ",
"c.K.A z.1X%._.C.@ Z.R.7.<.l l ( <.2.v l @X!.+ + J [.G.>X_ B.+Xm.",
"J.z.@ G 1XA.].;.@ |.*XO.D $ P =XOXe.h 7 4.o.0 $ ;.&XQ.7.y _ 3.x.",
"J.x.A 6 %. XC.E.+ ).R.0 . w e.oXOXU h . $ 5 + 9.{./.W.T + B.>.H.",
"z.x.S.+ r E.K 5X@ }.9.. . q.8X+.i.# =   + ; . 5X/.=.0.K . ,X3.OX",
"@ 5 r @ + 5 g @ . . . .   .       . # . . . & p * + . v + 8 l + ",
"-X,.V.G.K + . + . . . . O   O     . . .   . % p u.* * 9.{.w.0.c ",
"P.#.B.>X..5 + 0 . .           O   . #       o > 1 . B -.6X(.).. ",
"c.x.P.L.Z.R.9.L . .       O       O . .     . % . M t.t.*.o.W.# ",
"D.K.G.1.7.%X-.& .               O O O         o o . % N . . z . ",
"z.$.$.7.^.{.*.* .   X     O O           X X o X 2 %   d & -.4.# ",
"P.D.G.`.Q.{.^.|   X X   X O             X o o X X > & % s $X6X  ",
",.x.%.k . + * . . X X   X O   O         X o X X : o a   . # o.7 ",
"r @ 8 @ . p                             X         & . . 5 $ . 5 ",
"S.@ + @ $ #   2 X X                             m 1 p b e + 6  .",
"N.k 5 + . #       X X       X                       C {.|.L e 3 ",
"N.z.Z.Y * # -         X   X X X           X     X - ] /./.Q. .3 ",
"_.B.[.=XI     O X X X X X X X X         X   X   O Z 5.p.O.0. XC.",
"B.<.<.!.[ 1 2 #     X X X X X X         X   X       N y.|.^.Q.Q.",
"8.OXi.!.4.[ { -       X X X X X                 2     f 9.).Q.Q.",
"OX2.:.=X4.= =         X X X X X                   s # $ R ~.Z.N.",
"  l   = = 7 . . p . m . X n , X .   <     O <   z   # $ 8 + i @ ",
"= OXX.l . . h  .H . d   } . *.>   # { u.V .   ;   p.q.. 8 y 1.<X",
"= :.h # h F.~.<.~ 8 + o.9Xy.t.+ . q { 7X4.z .   # w W.,XK u J.k.",
"  H.:.( ( ,X+Xx.+ @ @.[.r.;.# # h :.i.*Xi.i.' q # w.@XP.'.b.I.l.",
". %X2X,Xz.x.k.c.@ t 4X! %.g + + $ 7.7.%X6.!.).w.+ F K k.I.s.s.U.",
"5 X.P $.m.+Xc.v.u d.s.V.3Xx.#.7 + D 5 <.X.8.8.~.7.3 r 4XXXv.T.Y.",
"h %XG.`.z.m.b..X4 M.d.4Xm.c.#.x.5 ! 5 D.G.@XH.B.V.+X4 4 a.T.j.f.",
"+ Z.Z.L.c.Y.b.h.h.a.Y.E m.c.` ;X@ <X( +X#.G.G.B.V.,.Q :Xj.v.U.f."
};
